<?xml version="1.0" encoding="UTF-8"?>
<!DOCTYPE svg PUBLIC "-//W3C//DTD SVG 1.1//EN" "http://www.w3.org/Graphics/SVG/1.1/DTD/svg11.dtd">
<!-- Creator: CorelDRAW 2021 (64 Bit) -->
<svg xmlns="http://www.w3.org/2000/svg" xml:space="preserve" width="33.4959mm" height="47.8506mm" version="1.1" style="shape-rendering:geometricPrecision; text-rendering:geometricPrecision; image-rendering:optimizeQuality; fill-rule:evenodd; clip-rule:evenodd"
viewBox="0 0 657.97 939.94"
 xmlns:xlink="http://www.w3.org/1999/xlink"
 xmlns:xodm="http://www.corel.com/coreldraw/odm/2003">
 <defs>
  <style type="text/css">
   <![CDATA[
    .fil0 {fill:white}
   ]]>
  </style>
 </defs>
 <g id="Camada_x0020_1">
  <metadata id="CorelCorpID_0Corel-Layer"/>
  <path class="fil0" d="M322.77 778.88c-0.17,0 -0.35,0.01 -0.52,0.01 -88.35,0 -161.2,-72.87 -161.2,-161.22l0 -188.18 -161.05 0 0 188.18c0,177.25 145,322.28 322.25,322.28 0.17,0 0.35,-0.01 0.52,-0.01l0 -161.05z"/>
  <path class="fil0" d="M494.72 73.65l0 389.56 0.07 0 0 154.46c0,87.46 -71.41,159.71 -158.56,161.16l0 161.05c176.04,-1.44 319.62,-145.84 319.62,-322.21l0 -544.02 -161.13 0z"/>
  <path class="fil0" d="M247.36 306.32l0 308.99c0,44.32 36.25,80.56 80.56,80.56 44.32,0 80.56,-36.25 80.56,-80.56l0 -308.99 -161.13 0z"/>
  <path class="fil0" d="M299.46 844.81c-113.27,-3.98 -203.91,-97 -203.91,-211.23l0 -50.32 -85.03 0c-2.76,16.36 -4.22,33.17 -4.22,50.32 0,52.53 13.49,101.92 37.16,144.89l-16.38 61.24 -19.96 74.43c-1.49,5.59 0,11.13 4.06,15.23 4.1,4.07 9.64,5.56 15.23,4.07l74.43 -19.96 61.24 -16.39c40.9,22.54 87.65,35.81 137.37,37.04l0 -89.32z"/>
  <path class="fil0" d="M80.96 348.52c44.72,0 80.97,36.25 80.97,80.97 0,44.72 -36.25,80.96 -80.97,80.96 -44.71,0 -80.96,-36.25 -80.96,-80.96 0,-44.72 36.25,-80.97 80.96,-80.97z"/>
  <path class="fil0" d="M327.92 225.36c44.72,0 80.97,36.25 80.97,80.97 0,44.72 -36.25,80.97 -80.97,80.97 -44.72,0 -80.96,-36.25 -80.96,-80.97 0,-44.71 36.25,-80.97 80.96,-80.97z"/>
  <path class="fil0" d="M577 0c44.72,0 80.97,36.25 80.97,80.97 0,44.72 -36.25,80.97 -80.97,80.97 -44.72,0 -80.96,-36.25 -80.96,-80.97 0,-44.71 36.25,-80.97 80.96,-80.97z"/>
 </g>
</svg>
