<?xml version="1.0" encoding="UTF-8"?>
<!DOCTYPE svg PUBLIC "-//W3C//DTD SVG 1.1//EN" "http://www.w3.org/Graphics/SVG/1.1/DTD/svg11.dtd">
<!-- Creator: CorelDRAW 2021 (64 Bit) -->
<svg xmlns="http://www.w3.org/2000/svg" xml:space="preserve" width="163.55mm" height="47.8506mm" version="1.1" style="shape-rendering:geometricPrecision; text-rendering:geometricPrecision; image-rendering:optimizeQuality; fill-rule:evenodd; clip-rule:evenodd"
viewBox="0 0 15686.36 4589.44"
 xmlns:xlink="http://www.w3.org/1999/xlink"
 xmlns:xodm="http://www.corel.com/coreldraw/odm/2003">
 <defs>
  <style type="text/css">
   <![CDATA[
    .fil0 {fill:white}
    .fil1 {fill:white;fill-rule:nonzero}
   ]]>
  </style>
 </defs>
 <g id="Camada_x0020_1">
  <metadata id="CorelCorpID_0Corel-Layer"/>
  <path class="fil0" d="M5649.58 3687.32l0 -1275.93 -520.74 0 0 1278.99c0,127.91 -32.49,226.38 -97.44,295.37 -64.99,69.06 -158.33,103.54 -280.14,103.54 -121.81,0 -214.22,-34.48 -277.13,-103.54 -62.93,-68.99 -94.4,-167.46 -94.4,-295.37l0 -1278.99 -520.72 0 0 1275.93c0,190.85 38.54,352.79 115.73,485.72 77.11,132.99 182.18,232.49 315.17,298.42 132.94,66.02 283.66,98.97 452.2,98.97 168.48,0 321.27,-33.47 458.31,-100.49 137.02,-66.99 246.12,-166.44 327.35,-298.43 81.18,-131.95 121.81,-293.34 121.81,-484.19z"/>
  <path class="fil0" d="M6014.97 2849.92l0 1699.19 520.7 0 0 -922.68c0,-113.68 29.42,-202 88.33,-264.94 58.86,-62.92 138.03,-94.42 237.54,-94.42 99.45,0 178.62,31.5 237.51,94.42 58.87,62.94 88.33,151.25 88.33,264.94l0 922.68 517.67 0 0 -992.73c0,-225.34 -59.38,-402.43 -178.15,-531.37 -118.75,-128.9 -277.65,-193.38 -476.59,-193.38 -111.66,0 -212.15,21.85 -301.47,65.48 -89.35,43.68 -160.39,103.06 -213.16,178.15l0 -225.34 -520.7 0z"/>
  <path class="fil1" d="M8105.47 2592.59c-57.85,-53.76 -86.79,-120.29 -86.79,-199.46 0,-81.18 28.94,-148.71 86.79,-202.52 57.87,-53.76 132.48,-80.68 223.83,-80.68 89.31,0 162.93,26.92 220.79,80.68 57.85,53.81 86.77,121.34 86.77,202.52 0,79.17 -28.92,145.7 -86.77,199.46 -57.86,53.81 -131.48,80.69 -220.79,80.69 -91.35,0 -165.96,-26.88 -223.83,-80.69z"/>
  <polygon class="fil0" points="8588.13,2849.91 8067.43,2849.91 8067.43,4549.11 8588.13,4549.11 "/>
  <path class="fil1" d="M8994.66 3253.4c70.04,-130.96 166.96,-231.91 290.81,-303 123.8,-71.04 265.93,-106.58 426.34,-106.58 202.96,0 370.97,48.23 503.99,144.63 132.92,96.45 222.76,234.02 269.47,412.64l-374.55 0c-30.44,-83.21 -79.18,-148.18 -146.17,-194.9 -67,-46.68 -151.26,-70.03 -252.74,-70.03 -142.13,0 -255.34,50.25 -339.55,150.73 -84.27,100.49 -126.38,241.08 -126.38,421.76 0,180.7 42.11,321.78 126.38,423.27 84.21,101.55 197.42,152.27 339.55,152.27 200.97,0 333.92,-88.32 398.91,-264.93l374.55 0c-48.73,170.51 -140.06,306.03 -274.07,406.52 -133.97,100.51 -300.47,150.75 -499.39,150.75 -160.4,0 -302.53,-36.02 -426.34,-108.13 -123.85,-72.03 -220.77,-173.56 -290.81,-304.51 -70.04,-130.93 -105.04,-282.67 -105.04,-455.25 0,-172.53 35,-324.32 105.04,-455.25z"/>
  <path class="fil1" d="M12042.87 2926.03c100.49,54.81 179.66,136.04 237.52,243.61 57.85,107.63 86.77,237.54 86.77,389.79l0 989.69 -344.09 0 0 -937.9c0,-150.22 -37.58,-265.43 -112.68,-345.64 -75.14,-80.19 -177.65,-120.29 -307.56,-120.29 -129.94,0 -232.95,40.1 -309.08,120.29 -76.13,80.21 -114.2,195.42 -114.2,345.64l0 937.9 -347.14 0 0 -2253.43 347.14 0 0 770.42c58.85,-71.04 133.45,-125.85 223.83,-164.44 90.3,-38.54 189.28,-57.85 296.91,-57.85 127.87,0 242.06,27.41 342.58,82.22z"/>
  <path class="fil1" d="M13994.79 3407.18c-47.74,-85.27 -110.16,-150.24 -187.3,-194.89 -77.17,-44.65 -160.4,-67 -249.71,-67 -89.34,0 -172.57,21.83 -249.69,65.49 -77.19,43.67 -139.61,107.63 -187.3,191.82 -47.72,84.29 -71.56,184.25 -71.56,299.95 0,115.74 23.84,217.27 71.56,304.52 47.69,87.33 110.62,153.78 188.8,199.46 78.13,45.68 160.87,68.52 248.18,68.52 89.3,0 172.54,-22.32 249.71,-66.98 77.13,-44.66 139.55,-110.12 187.3,-196.42 47.67,-86.29 71.56,-187.3 71.56,-302.99 0,-115.73 -23.89,-216.23 -71.56,-301.48zm-1196.77 -152.27c70.04,-129.88 165.43,-230.92 286.25,-302.99 120.76,-72.03 254.26,-108.1 400.43,-108.1 131.95,0 247.14,25.88 345.65,77.66 98.42,51.75 177.07,116.23 236,193.36l0 -243.61 350.2 0 0 1677.89 -350.2 0 0 -249.71c-58.93,79.18 -139.08,145.17 -240.59,197.95 -101.53,52.75 -217.24,79.17 -347.16,79.17 -144.16,0 -276.1,-37.03 -395.85,-111.14 -119.82,-74.09 -214.69,-177.63 -284.73,-310.61 -70.04,-132.96 -105.05,-283.69 -105.05,-452.22 0,-168.48 35.01,-317.71 105.05,-447.64z"/>
  <path class="fil1" d="M15278.3 3154.42l0 928.78c0,62.94 14.7,108.1 44.17,135.52 29.41,27.39 79.65,41.1 150.73,41.1l213.15 0 0 289.29 -274.06 0c-156.36,0 -276.13,-36.54 -359.34,-109.64 -83.26,-73.07 -124.86,-191.83 -124.86,-356.27l0 -928.78 -197.91 0 0 -283.2 197.91 0 0 -417.19 350.2 0 0 417.19 408.06 0 0 283.2 -408.06 0z"/>
  <path class="fil0" d="M1576 3803.01c-0.85,0 -1.69,0.06 -2.54,0.06 -431.39,0 -787.1,-355.81 -787.1,-787.21l0 -918.83 -786.36 0 0 918.83c0,865.48 708.01,1573.58 1573.46,1573.58 0.85,0 1.69,-0.06 2.54,-0.06l0 -786.37z"/>
  <path class="fil0" d="M2415.54 359.6l0 1902.08 0.36 0 0 754.18c0,427.06 -348.67,779.83 -774.21,786.87l0 786.38c859.57,-7.05 1560.58,-712.11 1560.58,-1573.25l0 -2656.27 -786.74 0z"/>
  <path class="fil0" d="M1207.77 1495.68l0 1508.71c0,216.4 176.98,393.37 393.35,393.37 216.4,0 393.37,-176.98 393.37,-393.37l0 -1508.71 -786.73 0z"/>
  <path class="fil0" d="M1462.15 4124.96c-553.05,-19.42 -995.61,-473.63 -995.61,-1031.36l0 -245.69 -415.17 0c-13.46,79.89 -20.58,161.95 -20.58,245.69 0,256.49 65.86,497.64 181.45,707.44l-79.99 299.03 -97.44 363.42c-7.28,27.32 0,54.32 19.82,74.34 20.01,19.88 47.09,27.16 74.36,19.88l363.41 -97.44 299.03 -80.05c199.7,110.08 427.99,174.87 670.73,180.84l0 -436.11z"/>
  <path class="fil0" d="M395.32 1701.7c218.34,0 395.35,177 395.35,395.33 0,218.33 -177.01,395.32 -395.35,395.32 -218.32,0 -395.32,-176.99 -395.32,-395.32 0,-218.33 177,-395.33 395.32,-395.33z"/>
  <path class="fil0" d="M1601.12 1100.35c218.34,0 395.35,177.01 395.35,395.33 0,218.33 -177.01,395.33 -395.35,395.33 -218.33,0 -395.32,-177 -395.32,-395.33 0,-218.32 176.99,-395.33 395.32,-395.33z"/>
  <path class="fil0" d="M2817.31 0c218.34,0 395.34,177.01 395.34,395.33 0,218.33 -177,395.33 -395.34,395.33 -218.33,0 -395.32,-177 -395.32,-395.33 0,-218.32 176.99,-395.33 395.32,-395.33z"/>
 </g>
</svg>
